<svg width="620" height="702" viewBox="0 0 620 702" fill="none" xmlns="http://www.w3.org/2000/svg">
<path fill-rule="evenodd" clip-rule="evenodd" d="M595.767 1C608.598 1 619 9.9544 619 21V181C619 192.046 608.598 201 595.767 201H395C383.954 201 375 209.954 375 221V230.997C375 242.043 383.954 250.997 395 250.997H595.767C608.598 250.997 619 259.951 619 270.997V430.997C619 442.043 608.598 450.997 595.767 450.997H348.038C340.893 450.997 334.29 454.809 330.718 460.997L324.944 470.997C317.246 484.33 326.869 500.997 342.265 500.997H595.767C608.598 500.997 619 509.951 619 520.997V680.997C619 692.043 608.598 700.997 595.767 700.997H24.2331C11.4016 700.997 1 692.043 1 680.997V520.997C1 509.951 11.4016 500.997 24.2331 500.997H248.748C255.893 500.997 262.495 497.185 266.068 490.997L271.842 480.997C279.54 467.664 269.917 450.997 254.521 450.997H24.2331C11.4016 450.997 1 442.043 1 430.997V270.997C1 259.951 11.4016 250.997 24.2331 250.997H314.012C325.057 250.997 334.012 242.043 334.012 230.997V221C334.012 209.954 325.057 201 314.012 201H24.2331C11.4016 201 1 192.046 1 181V21C1 9.9544 11.4016 1 24.2331 1H595.767Z" fill="white"/>
<path d="M324.944 470.997L325.81 471.497L325.81 471.497L324.944 470.997ZM266.068 490.997L265.202 490.497L266.068 490.997ZM271.842 480.997L270.976 480.497L270.976 480.497L271.842 480.997ZM330.718 460.997L331.584 461.497L330.718 460.997ZM620 21C620 9.26676 609.005 0 595.767 0V2C608.192 2 618 10.642 618 21H620ZM620 181V21H618V181H620ZM595.767 202C609.005 202 620 192.733 620 181H618C618 191.358 608.192 200 595.767 200V202ZM395 202H595.767V200H395V202ZM376 230.997V221H374V230.997H376ZM595.767 249.997H395V251.997H595.767V249.997ZM620 270.997C620 259.264 609.005 249.997 595.767 249.997V251.997C608.192 251.997 618 260.639 618 270.997H620ZM620 430.997V270.997H618V430.997H620ZM595.767 451.997C609.005 451.997 620 442.731 620 430.997H618C618 441.355 608.192 449.997 595.767 449.997V451.997ZM348.038 451.997H595.767V449.997H348.038V451.997ZM329.852 460.497L324.078 470.497L325.81 471.497L331.584 461.497L329.852 460.497ZM595.767 499.997H342.265V501.997H595.767V499.997ZM620 520.997C620 509.264 609.005 499.997 595.767 499.997V501.997C608.192 501.997 618 510.639 618 520.997H620ZM620 680.997V520.997H618V680.997H620ZM595.767 701.997C609.005 701.997 620 692.73 620 680.997H618C618 691.355 608.192 699.997 595.767 699.997V701.997ZM24.2331 701.997H595.767V699.997H24.2331V701.997ZM0 680.997C0 692.73 10.9951 701.997 24.2331 701.997V699.997C11.808 699.997 2 691.355 2 680.997H0ZM0 520.997V680.997H2V520.997H0ZM24.2331 499.997C10.9951 499.997 0 509.264 0 520.997H2C2 510.639 11.808 501.997 24.2331 501.997V499.997ZM248.748 499.997H24.2331V501.997H248.748V499.997ZM266.934 491.497L272.708 481.497L270.976 480.497L265.202 490.497L266.934 491.497ZM24.2331 451.997H254.521V449.997H24.2331V451.997ZM0 430.997C0 442.731 10.9951 451.997 24.2331 451.997V449.997C11.808 449.997 2 441.355 2 430.997H0ZM0 270.997V430.997H2V270.997H0ZM24.2331 249.997C10.9951 249.997 0 259.264 0 270.997H2C2 260.639 11.808 251.997 24.2331 251.997V249.997ZM314.012 249.997H24.2331V251.997H314.012V249.997ZM333.012 221V230.997H335.012V221H333.012ZM24.2331 202H314.012V200H24.2331V202ZM0 181C0 192.733 10.9951 202 24.2331 202V200C11.808 200 2 191.358 2 181H0ZM0 21V181H2V21H0ZM24.2331 0C10.9951 0 0 9.26676 0 21H2C2 10.642 11.808 2 24.2331 2V0ZM595.767 0H24.2331V2H595.767V0ZM324.078 470.497C315.995 484.497 326.099 501.997 342.265 501.997V499.997C327.639 499.997 318.497 484.164 325.81 471.497L324.078 470.497ZM248.748 501.997C256.25 501.997 263.183 497.994 266.934 491.497L265.202 490.497C261.808 496.376 255.536 499.997 248.748 499.997V501.997ZM272.708 481.497C280.79 467.497 270.687 449.997 254.521 449.997V451.997C269.147 451.997 278.289 467.83 270.976 480.497L272.708 481.497ZM348.038 449.997C340.536 449.997 333.603 454 329.852 460.497L331.584 461.497C334.978 455.618 341.25 451.997 348.038 451.997V449.997ZM335.012 221C335.012 209.402 325.61 200 314.012 200V202C324.505 202 333.012 210.507 333.012 221H335.012ZM374 230.997C374 242.595 383.402 251.997 395 251.997V249.997C384.507 249.997 376 241.49 376 230.997H374ZM314.012 251.997C325.61 251.997 335.012 242.595 335.012 230.997H333.012C333.012 241.49 324.505 249.997 314.012 249.997V251.997ZM395 200C383.402 200 374 209.402 374 221H376C376 210.507 384.507 202 395 202V200Z" fill="#1B1B1B"/>
</svg>
