<svg width="131" height="66" viewBox="0 0 131 66" fill="none" xmlns="http://www.w3.org/2000/svg">
<path fill-rule="evenodd" clip-rule="evenodd" d="M65.9143 13.5915C67.1973 13.2506 71.9343 11.6556 71.9343 6.59942C71.9343 3.67409 70.8232 0.188721 65.5279 0.188721C62.6536 0.188721 59.2965 1.83246 59.2965 6.47156C59.2965 9.83825 61.4007 10.7027 61.4913 10.7393L61.7751 10.0118C61.7057 9.98434 60.0725 9.27814 60.0725 6.47464C60.0725 1.23891 64.616 0.974067 65.5279 0.974067C69.3167 0.974067 71.1614 2.8157 71.1614 6.60244C71.1614 11.7651 65.6908 12.8549 65.4584 12.9006L65.1414 12.9614V22.4557L6.12486 45.846C1.10413 47.8368 -0.411393 52.6098 0.310209 56.4604C0.9472 59.8454 3.45907 63.2578 7.72199 64.031C7.99059 65.0263 8.88429 65.76 9.9561 65.76H121.097C122.168 65.76 123.062 65.0263 123.331 64.031C127.597 63.2578 130.108 59.8484 130.742 56.4604C131.467 52.6098 129.952 47.8337 124.931 45.846L124.934 45.843L65.9143 22.4526V13.5915ZM121.099 61.0632H9.95553C8.73886 61.0632 7.7486 62.0099 7.64896 63.2122C3.87206 62.4269 1.64406 59.3615 1.07043 56.3145C0.406202 52.7804 1.79797 48.4 6.40503 46.5736L65.5272 23.1438L124.65 46.5736C129.257 48.4 130.648 52.7834 129.984 56.3145V56.3114C129.41 59.3585 127.182 62.4238 123.406 63.2122C123.303 62.0099 122.316 61.0632 121.099 61.0632Z" fill="#1D1D1B"/>
</svg>
