<svg width="621" height="702" viewBox="0 0 621 702" fill="none" xmlns="http://www.w3.org/2000/svg">
<path fill-rule="evenodd" clip-rule="evenodd" d="M596.773 1C609.601 1 620 9.9544 620 21V181C620 192.046 609.601 201 596.773 201H303.567C295.352 201 287.973 206.023 284.961 213.666L281.019 223.666C275.846 236.79 285.52 251 299.626 251H596.773C609.601 251 620 259.954 620 271V431C620 442.046 609.601 451 596.773 451H468.865C454.337 451 444.656 466.001 450.641 479.24L455.162 489.24C458.4 496.399 465.529 501 473.386 501H596.773C609.601 501 620 509.954 620 521V681C620 692.046 609.601 701 596.773 701H24.2267C11.3992 701 1 692.046 1 681V521C1 509.954 11.3992 501 24.2267 501H384.505C399.033 501 408.714 485.999 402.728 472.76L398.207 462.76C394.97 455.601 387.841 451 379.983 451H24.2267C11.3992 451 1 442.046 1 431V271C1 259.954 11.3992 251 24.2267 251H212.573C220.788 251 228.168 245.977 231.18 238.334L235.122 228.334C240.294 215.21 230.621 201 216.515 201H24.2267C11.3992 201 1 192.046 1 181V21C1 9.9544 11.3992 1 24.2267 1H596.773Z" fill="white"/>
<path d="M402.728 472.76L403.64 472.348L402.728 472.76ZM398.207 462.76L399.118 462.348L398.207 462.76ZM235.122 228.334L236.052 228.701L235.122 228.334ZM281.019 223.666L280.089 223.299L281.019 223.666ZM621 21C621 9.26698 610.008 0 596.773 0V2C609.194 2 619 10.6418 619 21H621ZM621 181V21H619V181H621ZM596.773 202C610.008 202 621 192.733 621 181H619C619 191.358 609.194 200 596.773 200V202ZM303.567 202H596.773V200H303.567V202ZM281.949 224.033L285.891 214.033L284.03 213.299L280.089 223.299L281.949 224.033ZM596.773 250H299.626V252H596.773V250ZM621 271C621 259.267 610.008 250 596.773 250V252C609.194 252 619 260.642 619 271H621ZM621 431V271H619V431H621ZM596.773 452C610.008 452 621 442.733 621 431H619C619 441.358 609.194 450 596.773 450V452ZM468.865 452H596.773V450H468.865V452ZM449.73 479.652L454.251 489.652L456.074 488.828L451.552 478.828L449.73 479.652ZM596.773 500H473.386V502H596.773V500ZM621 521C621 509.267 610.008 500 596.773 500V502C609.194 502 619 510.642 619 521H621ZM621 681V521H619V681H621ZM596.773 702C610.008 702 621 692.733 621 681H619C619 691.358 609.194 700 596.773 700V702ZM24.2267 702H596.773V700H24.2267V702ZM0 681C0 692.733 10.9925 702 24.2267 702V700C11.8059 700 2 691.358 2 681H0ZM0 521V681H2V521H0ZM24.2267 500C10.9925 500 0 509.267 0 521H2C2 510.642 11.8059 502 24.2267 502V500ZM384.505 500H24.2267V502H384.505V500ZM403.64 472.348L399.118 462.348L397.296 463.172L401.817 473.172L403.64 472.348ZM24.2267 452H379.983V450H24.2267V452ZM0 431C0 442.733 10.9925 452 24.2267 452V450C11.8059 450 2 441.358 2 431H0ZM0 271V431H2V271H0ZM24.2267 250C10.9925 250 0 259.267 0 271H2C2 260.642 11.8059 252 24.2267 252V250ZM212.573 250H24.2267V252H212.573V250ZM234.191 227.967L230.25 237.967L232.111 238.701L236.052 228.701L234.191 227.967ZM24.2267 202H216.515V200H24.2267V202ZM0 181C0 192.733 10.9925 202 24.2267 202V200C11.8059 200 2 191.358 2 181H0ZM0 21V181H2V21H0ZM24.2267 0C10.9925 0 0 9.26698 0 21H2C2 10.6418 11.8059 2 24.2267 2V0ZM596.773 0H24.2267V2H596.773V0ZM454.251 489.652C457.65 497.169 465.136 502 473.386 502V500C465.922 500 459.149 495.629 456.074 488.828L454.251 489.652ZM384.505 502C399.759 502 409.924 486.249 403.64 472.348L401.817 473.172C407.503 485.749 398.307 500 384.505 500V502ZM399.118 462.348C395.719 454.831 388.233 450 379.983 450V452C387.448 452 394.221 456.371 397.296 463.172L399.118 462.348ZM468.865 450C453.61 450 443.445 465.751 449.73 479.652L451.552 478.828C445.866 466.251 455.063 452 468.865 452V450ZM236.052 228.701C241.483 214.921 231.326 200 216.515 200V202C229.916 202 239.106 215.5 234.191 227.967L236.052 228.701ZM280.089 223.299C274.657 237.079 284.814 252 299.626 252V250C286.225 250 277.035 236.5 281.949 224.033L280.089 223.299ZM212.573 252C221.199 252 228.948 246.725 232.111 238.701L230.25 237.967C227.388 245.228 220.378 250 212.573 250V252ZM303.567 200C294.942 200 287.193 205.275 284.03 213.299L285.891 214.033C288.753 206.772 295.763 202 303.567 202V200Z" fill="#1B1B1B"/>
</svg>
