<svg width="132" height="66" viewBox="0 0 132 66" fill="none" xmlns="http://www.w3.org/2000/svg">
<path fill-rule="evenodd" clip-rule="evenodd" d="M66.469 13.5915C67.752 13.2506 72.489 11.6556 72.489 6.59942C72.489 3.67409 71.3779 0.188721 66.0826 0.188721C63.2083 0.188721 59.8511 1.83246 59.8511 6.47156C59.8511 9.83825 61.9554 10.7027 62.046 10.7393L62.3298 10.0118C62.2604 9.98434 60.6271 9.27814 60.6271 6.47464C60.6271 1.23891 65.1707 0.974067 66.0826 0.974067C69.8714 0.974067 71.7161 2.8157 71.7161 6.60244C71.7161 11.7651 66.2455 12.8549 66.0131 12.9006L65.6961 12.9614V22.4557L6.67955 45.846C1.65881 47.8368 0.143295 52.6098 0.864896 56.4604C1.50189 59.8454 4.01376 63.2578 8.27667 64.031C8.54528 65.0263 9.43898 65.76 10.5108 65.76H121.651C122.723 65.76 123.617 65.0263 123.885 64.031C128.151 63.2578 130.663 59.8484 131.297 56.4604C132.022 52.6098 130.506 47.8337 125.485 45.846L125.488 45.843L66.469 22.4526V13.5915ZM121.654 61.0632H10.5102C9.29355 61.0632 8.30328 62.0099 8.20365 63.2122C4.42675 62.4269 2.19875 59.3615 1.62511 56.3145C0.96089 52.7804 2.35266 48.4 6.95972 46.5736L66.0819 23.1438L125.204 46.5736C129.811 48.4 131.203 52.7834 130.539 56.3145V56.3114C129.965 59.3585 127.737 62.4238 123.96 63.2122C123.858 62.0099 122.87 61.0632 121.654 61.0632Z" fill="#1D1D1B"/>
</svg>
