<svg width="132" height="66" viewBox="0 0 132 66" fill="none" xmlns="http://www.w3.org/2000/svg">
<path fill-rule="evenodd" clip-rule="evenodd" d="M66.0159 13.5915C67.2989 13.2506 72.0358 11.6556 72.0358 6.59942C72.0358 3.67409 70.9248 0.188721 65.6294 0.188721C62.7552 0.188721 59.398 1.83246 59.398 6.47156C59.398 9.83825 61.5023 10.7027 61.5929 10.7393L61.8767 10.0118C61.8072 9.98434 60.174 9.27814 60.174 6.47464C60.174 1.23891 64.7176 0.974067 65.6294 0.974067C69.4183 0.974067 71.263 2.8157 71.263 6.60244C71.263 11.7651 65.7924 12.8549 65.56 12.9006L65.243 12.9614V22.4557L6.22643 45.846C1.20569 47.8368 -0.30983 52.6098 0.411771 56.4604C1.04876 59.8454 3.56063 63.2578 7.82355 64.031C8.09215 65.0263 8.98585 65.76 10.0577 65.76H121.198C122.27 65.76 123.164 65.0263 123.432 64.031C127.698 63.2578 130.21 59.8484 130.844 56.4604C131.569 52.6098 130.053 47.8337 125.032 45.846L125.035 45.843L66.0159 22.4526V13.5915ZM121.201 61.0632H10.0571C8.84042 61.0632 7.85016 62.0099 7.75053 63.2122C3.97362 62.4269 1.74563 59.3615 1.17199 56.3145C0.507765 52.7804 1.89953 48.4 6.50659 46.5736L65.6288 23.1438L124.751 46.5736C129.358 48.4 130.75 52.7834 130.086 56.3145V56.3114C129.512 59.3585 127.284 62.4238 123.507 63.2122C123.405 62.0099 122.417 61.0632 121.201 61.0632Z" fill="#1D1D1B"/>
</svg>
