<svg width="1456" height="172" viewBox="0 0 1456 172" fill="none" xmlns="http://www.w3.org/2000/svg">
<path fill-rule="evenodd" clip-rule="evenodd" d="M435 1V81H527.021L509.004 62.9833L515.987 56L540.987 81H939.517L921.5 62.9833L928.483 56L953.483 81H1105V1H1115V81H1279.52L1261.5 62.9833L1268.48 56L1293.48 81H1455V91V171H1445V91H1293.52L1268.48 116.051L1261.5 109.068L1279.56 91H953.52L928.483 116.051L921.5 109.068L939.556 91H641V171H631V91H541.024L515.987 116.051L509.004 109.068L527.059 91H234.254L209.217 116.051L202.234 109.068L220.29 91H-40V81H220.252L202.234 62.9833L209.217 56L234.217 81H425V1H435Z" fill="#FCAF17"/>
<path d="M435 81H434V82H435V81ZM435 1H436V0H435V1ZM527.021 81V82H529.436L527.728 80.2929L527.021 81ZM509.004 62.9833L508.297 62.2762L507.59 62.9834L508.297 63.6904L509.004 62.9833ZM515.987 56L516.694 55.2929L515.986 54.5858L515.279 55.2929L515.987 56ZM540.987 81L540.28 81.7071L540.572 82H540.987V81ZM939.517 81V82H941.932L940.224 80.2929L939.517 81ZM921.5 62.9833L920.793 62.2762L920.086 62.9834L920.793 63.6904L921.5 62.9833ZM928.483 56L929.19 55.2929L928.483 54.5858L927.775 55.2929L928.483 56ZM953.483 81L952.776 81.7071L953.069 82H953.483V81ZM1105 81V82H1106V81H1105ZM1105 1V0H1104V1H1105ZM1115 1H1116V0H1115V1ZM1115 81H1114V82H1115V81ZM1279.52 81V82H1281.93L1280.22 80.2929L1279.52 81ZM1261.5 62.9833L1260.79 62.2762L1260.09 62.9834L1260.79 63.6904L1261.5 62.9833ZM1268.48 56L1269.19 55.2929L1268.48 54.5858L1267.78 55.2929L1268.48 56ZM1293.48 81L1292.78 81.7071L1293.07 82H1293.48V81ZM1455 81H1456V80H1455V81ZM1455 171V172H1456V171H1455ZM1445 171H1444V172H1445V171ZM1445 91H1446V90H1445V91ZM1293.52 91V90H1293.11L1292.81 90.2931L1293.52 91ZM1268.48 116.051L1267.78 116.758L1268.48 117.466L1269.19 116.758L1268.48 116.051ZM1261.5 109.068L1260.79 108.361L1260.09 109.068L1260.79 109.775L1261.5 109.068ZM1279.56 91L1280.26 91.7069L1281.97 90H1279.56V91ZM953.52 91V90H953.106L952.813 90.2931L953.52 91ZM928.483 116.051L927.775 116.758L928.483 117.466L929.19 116.758L928.483 116.051ZM921.5 109.068L920.793 108.361L920.086 109.068L920.793 109.775L921.5 109.068ZM939.556 91L940.263 91.7069L941.969 90H939.556V91ZM641 91V90H640V91H641ZM641 171V172H642V171H641ZM631 171H630V172H631V171ZM631 91H632V90H631V91ZM541.024 91V90H540.61L540.317 90.2931L541.024 91ZM515.987 116.051L515.279 116.758L515.987 117.466L516.694 116.758L515.987 116.051ZM509.004 109.068L508.297 108.361L507.59 109.068L508.297 109.775L509.004 109.068ZM527.059 91L527.767 91.7069L529.472 90H527.059V91ZM234.254 91V90H233.84L233.547 90.2931L234.254 91ZM209.217 116.051L208.51 116.758L209.217 117.466L209.924 116.758L209.217 116.051ZM202.234 109.068L201.527 108.361L200.82 109.068L201.527 109.775L202.234 109.068ZM220.29 91L220.997 91.7069L222.703 90H220.29V91ZM-40 91H-41V92H-40V91ZM-40 81V80H-41V81H-40ZM220.252 81V82H222.666L220.959 80.2929L220.252 81ZM202.234 62.9833L201.527 62.2762L200.82 62.9834L201.527 63.6904L202.234 62.9833ZM209.217 56L209.924 55.2929L209.217 54.5858L208.51 55.2929L209.217 56ZM234.217 81L233.51 81.7071L233.803 82H234.217V81ZM425 81V82H426V81H425ZM425 1V0H424V1H425ZM436 81V1H434V81H436ZM527.021 80H435V82H527.021V80ZM508.297 63.6904L526.314 81.7071L527.728 80.2929L509.711 62.2762L508.297 63.6904ZM515.279 55.2929L508.297 62.2762L509.711 63.6904L516.694 56.7071L515.279 55.2929ZM541.694 80.2929L516.694 55.2929L515.279 56.7071L540.28 81.7071L541.694 80.2929ZM939.517 80H540.987V82H939.517V80ZM920.793 63.6904L938.81 81.7071L940.224 80.2929L922.207 62.2762L920.793 63.6904ZM927.775 55.2929L920.793 62.2762L922.207 63.6904L929.19 56.7071L927.775 55.2929ZM954.19 80.2929L929.19 55.2929L927.775 56.7071L952.776 81.7071L954.19 80.2929ZM1105 80H953.483V82H1105V80ZM1104 1V81H1106V1H1104ZM1115 0H1105V2H1115V0ZM1116 81V1H1114V81H1116ZM1279.52 80H1115V82H1279.52V80ZM1260.79 63.6904L1278.81 81.7071L1280.22 80.2929L1262.21 62.2762L1260.79 63.6904ZM1267.78 55.2929L1260.79 62.2762L1262.21 63.6904L1269.19 56.7071L1267.78 55.2929ZM1294.19 80.2929L1269.19 55.2929L1267.78 56.7071L1292.78 81.7071L1294.19 80.2929ZM1455 80H1293.48V82H1455V80ZM1456 91V81H1454V91H1456ZM1456 171V91H1454V171H1456ZM1445 172H1455V170H1445V172ZM1444 91V171H1446V91H1444ZM1293.52 92H1445V90H1293.52V92ZM1269.19 116.758L1294.23 91.7069L1292.81 90.2931L1267.78 115.344L1269.19 116.758ZM1260.79 109.775L1267.78 116.758L1269.19 115.344L1262.21 108.361L1260.79 109.775ZM1278.85 90.2931L1260.79 108.361L1262.21 109.775L1280.26 91.7069L1278.85 90.2931ZM953.52 92H1279.56V90H953.52V92ZM929.19 116.758L954.227 91.7069L952.813 90.2931L927.775 115.344L929.19 116.758ZM920.793 109.775L927.775 116.758L929.19 115.344L922.207 108.361L920.793 109.775ZM938.848 90.2931L920.793 108.361L922.207 109.775L940.263 91.7069L938.848 90.2931ZM641 92H939.556V90H641V92ZM642 171V91H640V171H642ZM631 172H641V170H631V172ZM630 91V171H632V91H630ZM541.024 92H631V90H541.024V92ZM516.694 116.758L541.731 91.7069L540.317 90.2931L515.279 115.344L516.694 116.758ZM508.297 109.775L515.279 116.758L516.694 115.344L509.711 108.361L508.297 109.775ZM526.352 90.2931L508.297 108.361L509.711 109.775L527.767 91.7069L526.352 90.2931ZM234.254 92H527.059V90H234.254V92ZM233.547 90.2931L208.51 115.344L209.924 116.758L234.962 91.7069L233.547 90.2931ZM209.924 115.344L202.942 108.361L201.527 109.775L208.51 116.758L209.924 115.344ZM202.942 109.775L220.997 91.7069L219.583 90.2931L201.527 108.361L202.942 109.775ZM-40 92H220.29V90H-40V92ZM-41 81V91H-39V81H-41ZM220.252 80H-40V82H220.252V80ZM220.959 80.2929L202.941 62.2762L201.527 63.6904L219.545 81.7071L220.959 80.2929ZM202.942 63.6904L209.924 56.7071L208.51 55.2929L201.527 62.2762L202.942 63.6904ZM208.51 56.7071L233.51 81.7071L234.924 80.2929L209.924 55.2929L208.51 56.7071ZM425 80H234.217V82H425V80ZM424 1V81H426V1H424ZM435 0H425V2H435V0Z" fill="#1B1B1B"/>
</svg>
