<svg width="132" height="66" viewBox="0 0 132 66" fill="none" xmlns="http://www.w3.org/2000/svg">
<path fill-rule="evenodd" clip-rule="evenodd" d="M66.5706 13.5915C67.8536 13.2506 72.5905 11.6556 72.5905 6.59942C72.5905 3.67409 71.4795 0.188721 66.1841 0.188721C63.3099 0.188721 59.9527 1.83246 59.9527 6.47156C59.9527 9.83825 62.057 10.7027 62.1476 10.7393L62.4314 10.0118C62.3619 9.98434 60.7286 9.27814 60.7286 6.47464C60.7286 1.23891 65.2723 0.974067 66.1841 0.974067C69.973 0.974067 71.8177 2.8157 71.8177 6.60244C71.8177 11.7651 66.3471 12.8549 66.1147 12.9006L65.7977 12.9614V22.4557L6.78111 45.846C1.76038 47.8368 0.244857 52.6098 0.966459 56.4604C1.60345 59.8454 4.11532 63.2578 8.37824 64.031C8.64684 65.0263 9.54054 65.76 10.6123 65.76H121.753C122.825 65.76 123.718 65.0263 123.987 64.031C128.253 63.2578 130.765 59.8484 131.399 56.4604C132.123 52.6098 130.608 47.8337 125.587 45.846L125.59 45.843L66.5706 22.4526V13.5915ZM121.755 61.0632H10.6118C9.39511 61.0632 8.40485 62.0099 8.30521 63.2122C4.52831 62.4269 2.30031 59.3615 1.72668 56.3145C1.06245 52.7804 2.45422 48.4 7.06128 46.5736L66.1835 23.1438L125.306 46.5736C129.913 48.4 131.305 52.7834 130.64 56.3145V56.3114C130.067 59.3585 127.839 62.4238 124.062 63.2122C123.959 62.0099 122.972 61.0632 121.755 61.0632Z" fill="#1D1D1B"/>
</svg>
