<svg width="132" height="66" viewBox="0 0 132 66" fill="none" xmlns="http://www.w3.org/2000/svg">
<path fill-rule="evenodd" clip-rule="evenodd" d="M66.1253 13.5915C67.4083 13.2506 72.1452 11.6556 72.1452 6.59942C72.1452 3.67409 71.0342 0.188721 65.7388 0.188721C62.8646 0.188721 59.5074 1.83246 59.5074 6.47156C59.5074 9.83825 61.6116 10.7027 61.7023 10.7393L61.9861 10.0118C61.9166 9.98434 60.2834 9.27814 60.2834 6.47464C60.2834 1.23891 64.8269 0.974067 65.7388 0.974067C69.5277 0.974067 71.3724 2.8157 71.3724 6.60244C71.3724 11.7651 65.9018 12.8549 65.6694 12.9006L65.3524 12.9614V22.4557L6.3358 45.846C1.31506 47.8368 -0.200455 52.6098 0.521146 56.4604C1.15814 59.8454 3.67001 63.2578 7.93292 64.031C8.20153 65.0263 9.09523 65.76 10.167 65.76H121.307C122.379 65.76 123.273 65.0263 123.542 64.031C127.808 63.2578 130.319 59.8484 130.953 56.4604C131.678 52.6098 130.162 47.8337 125.142 45.846L125.145 45.843L66.1253 22.4526V13.5915ZM121.31 61.0632H10.1665C8.9498 61.0632 7.95953 62.0099 7.8599 63.2122C4.083 62.4269 1.855 59.3615 1.28136 56.3145C0.61714 52.7804 2.00891 48.4 6.61597 46.5736L65.7381 23.1438L124.86 46.5736C129.467 48.4 130.859 52.7834 130.195 56.3145V56.3114C129.621 59.3585 127.393 62.4238 123.617 63.2122C123.514 62.0099 122.527 61.0632 121.31 61.0632Z" fill="#1D1D1B"/>
</svg>
