<svg width="132" height="66" viewBox="0 0 132 66" fill="none" xmlns="http://www.w3.org/2000/svg">
<path fill-rule="evenodd" clip-rule="evenodd" d="M66.6682 13.5915C67.9512 13.2506 72.6882 11.6556 72.6882 6.59942C72.6882 3.67409 71.5771 0.188721 66.2818 0.188721C63.4075 0.188721 60.0504 1.83246 60.0504 6.47156C60.0504 9.83825 62.1546 10.7027 62.2452 10.7393L62.529 10.0118C62.4596 9.98434 60.8264 9.27814 60.8264 6.47464C60.8264 1.23891 65.3699 0.974067 66.2818 0.974067C70.0707 0.974067 71.9153 2.8157 71.9153 6.60244C71.9153 11.7651 66.4447 12.8549 66.2123 12.9006L65.8954 12.9614V22.4557L6.87877 45.846C1.85803 47.8368 0.342514 52.6098 1.06411 56.4604C1.70111 59.8454 4.21298 63.2578 8.47589 64.031C8.7445 65.0263 9.6382 65.76 10.71 65.76H121.85C122.922 65.76 123.816 65.0263 124.085 64.031C128.35 63.2578 130.862 59.8484 131.496 56.4604C132.221 52.6098 130.705 47.8337 125.685 45.846L125.688 45.843L66.6682 22.4526V13.5915ZM121.853 61.0632H10.7094C9.49277 61.0632 8.5025 62.0099 8.40287 63.2122C4.62596 62.4269 2.39797 59.3615 1.82433 56.3145C1.16011 52.7804 2.55188 48.4 7.15893 46.5736L66.2811 23.1438L125.403 46.5736C130.01 48.4 131.402 52.7834 130.738 56.3145V56.3114C130.164 59.3585 127.936 62.4238 124.159 63.2122C124.057 62.0099 123.07 61.0632 121.853 61.0632Z" fill="#1D1D1B"/>
</svg>
