<svg width="132" height="66" viewBox="0 0 132 66" fill="none" xmlns="http://www.w3.org/2000/svg">
<path fill-rule="evenodd" clip-rule="evenodd" d="M66.2229 13.5915C67.5059 13.2506 72.2429 11.6556 72.2429 6.59942C72.2429 3.67409 71.1318 0.188721 65.8365 0.188721C62.9622 0.188721 59.6051 1.83246 59.6051 6.47156C59.6051 9.83825 61.7093 10.7027 61.7999 10.7393L62.0837 10.0118C62.0143 9.98434 60.3811 9.27814 60.3811 6.47464C60.3811 1.23891 64.9246 0.974067 65.8365 0.974067C69.6253 0.974067 71.47 2.8157 71.47 6.60244C71.47 11.7651 65.9994 12.8549 65.767 12.9006L65.45 12.9614V22.4557L6.43346 45.846C1.41272 47.8368 -0.102799 52.6098 0.618802 56.4604C1.25579 59.8454 3.76767 63.2578 8.03058 64.031C8.29919 65.0263 9.19288 65.76 10.2647 65.76H121.405C122.477 65.76 123.371 65.0263 123.639 64.031C127.905 63.2578 130.417 59.8484 131.051 56.4604C131.776 52.6098 130.26 47.8337 125.239 45.846L125.242 45.843L66.2229 22.4526V13.5915ZM121.408 61.0632H10.2641C9.04745 61.0632 8.05719 62.0099 7.95756 63.2122C4.18065 62.4269 1.95266 59.3615 1.37902 56.3145C0.714796 52.7804 2.10657 48.4 6.71362 46.5736L65.8358 23.1438L124.958 46.5736C129.565 48.4 130.957 52.7834 130.293 56.3145V56.3114C129.719 59.3585 127.491 62.4238 123.714 63.2122C123.612 62.0099 122.624 61.0632 121.408 61.0632Z" fill="#1D1D1B"/>
</svg>
