<svg width="131" height="66" viewBox="0 0 131 66" fill="none" xmlns="http://www.w3.org/2000/svg">
<path fill-rule="evenodd" clip-rule="evenodd" d="M65.7767 13.5921C67.0597 13.2512 71.7967 11.6561 71.7967 6.59975C71.7967 3.67429 70.6856 0.188721 65.3903 0.188721C62.516 0.188721 59.1588 1.83259 59.1588 6.47189C59.1588 9.83871 61.2632 10.7033 61.3537 10.7398L61.6375 10.0122C61.5681 9.9848 59.9348 9.2786 59.9348 6.4749C59.9348 1.23898 64.4785 0.974133 65.3903 0.974133C69.1791 0.974133 71.0238 2.81583 71.0238 6.60277C71.0238 11.7656 65.5532 12.8554 65.3208 12.9011L65.0038 12.962V22.4568L5.98424 45.8451C0.963502 47.8359 -0.552018 52.6092 0.169584 56.4601C0.806575 59.8452 3.31845 63.2576 7.58136 64.0308C7.84997 65.0263 8.74366 65.76 9.81547 65.76H120.956C122.028 65.76 122.921 65.0263 123.19 64.0308C127.456 63.2576 129.968 59.8482 130.602 56.4601C131.326 52.6092 129.811 47.8329 124.79 45.8451H124.796L65.7767 22.4537V13.5921ZM120.962 61.0659H9.81881C8.60214 61.0659 7.61188 62.0126 7.51224 63.2151C3.73534 62.4297 1.50734 59.3642 0.933708 56.317C0.269483 52.7827 1.66125 48.4022 6.26831 46.5757L65.3905 23.1448L124.513 46.5757C129.12 48.4022 130.512 52.7858 129.847 56.317V56.314C129.274 59.3611 127.046 62.4266 123.269 63.2151C123.166 62.0126 122.179 61.0659 120.962 61.0659Z" fill="#1D1D1B"/>
</svg>
