<svg width="37" height="54" viewBox="0 0 37 54" fill="none" xmlns="http://www.w3.org/2000/svg">
<path d="M27.7376 43.8752L27.0305 43.1681L27.7376 43.8752ZM18.0902 52.5226C18.0902 53.0749 18.5379 53.5226 19.0902 53.5226L28.0902 53.5226C28.6425 53.5226 29.0902 53.0749 29.0902 52.5226C29.0902 51.9703 28.6425 51.5226 28.0902 51.5226L20.0902 51.5226L20.0902 43.5226C20.0902 42.9703 19.6425 42.5226 19.0902 42.5226C18.5379 42.5226 18.0902 42.9703 18.0902 43.5226L18.0902 52.5226ZM1.53626 0.128418C0.98398 0.128418 0.536263 0.576133 0.536265 1.12842C0.536259 1.6807 0.98398 2.12842 1.53626 2.12842L1.53626 0.128418ZM10.0313 1.12842L10.0313 2.12842L10.0313 1.12842ZM27.0305 43.1681L18.3831 51.8155L19.7973 53.2297L28.4447 44.5823L27.0305 43.1681ZM1.53626 2.12842L10.0313 2.12842L10.0313 0.128418L1.53626 0.128418L1.53626 2.12842ZM28.4447 44.5823C44.8493 28.1777 33.2309 0.128418 10.0313 0.128418L10.0313 2.12842C31.4491 2.12842 42.1751 28.0234 27.0305 43.1681L28.4447 44.5823Z" fill="#1B1B1B"/>
</svg>
