<svg width="24" height="24" viewBox="0 0 24 24" fill="none" xmlns="http://www.w3.org/2000/svg">
<g clip-path="url(#clip0_25_980)">
<path d="M10.8828 0.859863H21.6869C22.4906 0.859863 23.142 1.51134 23.142 2.31498V13.9356C23.142 14.7392 22.4906 15.3907 21.6869 15.3907H12.8549" stroke="black" stroke-width="2" stroke-linecap="round" stroke-linejoin="round"/>
<path d="M5.39544 6.8617C7.05281 6.8617 8.39637 5.51814 8.39637 3.86077C8.39637 2.20342 7.05281 0.859863 5.39544 0.859863C3.73809 0.859863 2.39453 2.20342 2.39453 3.86077C2.39453 5.51814 3.73809 6.8617 5.39544 6.8617Z" stroke="black" stroke-width="2" stroke-linecap="round" stroke-linejoin="round"/>
<path d="M15.4269 9.47842C15.4269 8.50563 14.6383 7.71704 13.6655 7.71704H5.39649C2.88856 7.71704 0.85547 9.75012 0.855469 12.2581V16.2885H2.80161L3.45033 23.1456H7.34263L8.83761 11.2398H13.6655C14.6383 11.2398 15.4269 10.4512 15.4269 9.47842Z" stroke="black" stroke-width="2" stroke-linecap="round" stroke-linejoin="round"/>
</g>
<defs>
<clipPath id="clip0_25_980">
<rect width="24" height="24" fill="white" transform="translate(0 0.00292969)"/>
</clipPath>
</defs>
</svg>
