<svg width="41" height="40" viewBox="0 0 41 40" fill="none" xmlns="http://www.w3.org/2000/svg">
<rect x="1" y="0.5" width="39" height="39" rx="19.5" fill="white" stroke="black"/>
<path fill-rule="evenodd" clip-rule="evenodd" d="M28.0635 12.8645C28.5321 12.8645 28.9119 13.2443 28.9119 13.7129C28.9119 14.1814 28.5321 14.5613 28.0635 14.5613H12.9382C12.4697 14.5613 12.0898 14.1814 12.0898 13.7129C12.0898 13.2443 12.4697 12.8645 12.9382 12.8645H28.0635Z" fill="black"/>
<path fill-rule="evenodd" clip-rule="evenodd" d="M28.0635 19.6516C28.5321 19.6516 28.9119 20.0314 28.9119 20.5C28.9119 20.9685 28.5321 21.3484 28.0635 21.3484H12.9382C12.4697 21.3484 12.0898 20.9685 12.0898 20.5C12.0898 20.0314 12.4697 19.6516 12.9382 19.6516H28.0635Z" fill="black"/>
<path fill-rule="evenodd" clip-rule="evenodd" d="M28.0635 26.4387C28.5321 26.4387 28.9119 26.8186 28.9119 27.2871C28.9119 27.7557 28.5321 28.1355 28.0635 28.1355H12.9382C12.4697 28.1355 12.0898 27.7557 12.0898 27.2871C12.0898 26.8186 12.4697 26.4387 12.9382 26.4387H28.0635Z" fill="black"/>
</svg>
