<svg width="132" height="66" viewBox="0 0 132 66" fill="none" xmlns="http://www.w3.org/2000/svg">
<path fill-rule="evenodd" clip-rule="evenodd" d="M66.3674 13.5915C67.6504 13.2506 72.3874 11.6556 72.3874 6.59942C72.3874 3.67409 71.2764 0.188721 65.981 0.188721C63.1068 0.188721 59.7496 1.83246 59.7496 6.47156C59.7496 9.83825 61.854 10.7027 61.9445 10.7393L62.2282 10.0118C62.1588 9.98434 60.5256 9.27814 60.5256 6.47464C60.5256 1.23891 65.0691 0.974067 65.981 0.974067C69.7699 0.974067 71.6145 2.8157 71.6145 6.60244C71.6145 11.7651 66.144 12.8549 65.9116 12.9006L65.5946 12.9614V22.4557L6.57799 45.846C1.55725 47.8368 0.0417324 52.6098 0.763334 56.4604C1.40033 59.8454 3.9122 63.2578 8.17511 64.031C8.44372 65.0263 9.33741 65.76 10.4092 65.76H121.55C122.621 65.76 123.515 65.0263 123.784 64.031C128.05 63.2578 130.562 59.8484 131.196 56.4604C131.92 52.6098 130.405 47.8337 125.384 45.846L125.387 45.843L66.3674 22.4526V13.5915ZM121.552 61.0632H10.4087C9.19198 61.0632 8.20172 62.0099 8.10209 63.2122C4.32518 62.4269 2.09719 59.3615 1.52355 56.3145C0.859327 52.7804 2.2511 48.4 6.85815 46.5736L65.9805 23.1438L125.103 46.5736C129.71 48.4 131.101 52.7834 130.437 56.3145V56.3114C129.864 59.3585 127.636 62.4238 123.859 63.2122C123.756 62.0099 122.769 61.0632 121.552 61.0632Z" fill="#1D1D1B"/>
</svg>
