<svg width="24" height="24" viewBox="0 0 24 24" fill="none" xmlns="http://www.w3.org/2000/svg">
<g clip-path="url(#clip0_25_1017)">
<path d="M8.99459 22.2575C7.94109 22.937 6.6857 23.2333 5.4395 23.0963C4.19332 22.9591 3.03232 22.3972 2.15176 21.5047L1.38193 20.752C1.04444 20.4067 0.855469 19.9432 0.855469 19.4605C0.855469 18.9777 1.04444 18.514 1.38193 18.1689L4.64939 14.9356C4.99171 14.5992 5.45246 14.4107 5.93243 14.4107C6.41238 14.4107 6.87314 14.5992 7.21545 14.9356C7.56066 15.2731 8.02427 15.4621 8.50705 15.4621C8.98982 15.4621 9.45342 15.2731 9.79862 14.9356L14.9307 9.80349C15.102 9.63477 15.2379 9.4337 15.3307 9.21197C15.4235 8.99025 15.4713 8.75227 15.4713 8.51191C15.4713 8.27153 15.4235 8.03357 15.3307 7.81183C15.2379 7.5901 15.102 7.38904 14.9307 7.22032C14.5943 6.87801 14.4058 6.41724 14.4058 5.93729C14.4058 5.45733 14.5943 4.99658 14.9307 4.65425L18.1811 1.40391C18.5263 1.06641 18.9899 0.877441 19.4726 0.877441C19.9555 0.877441 20.4191 1.06641 20.7643 1.40391L21.5171 2.17373C22.4094 3.05429 22.9713 4.21529 23.1084 5.46148C23.2456 6.70768 22.9494 7.96306 22.2696 9.01656C18.7284 14.2355 14.2226 18.7297 8.99459 22.2575Z" stroke="black" stroke-width="2" stroke-linecap="round" stroke-linejoin="round"/>
</g>
<defs>
<clipPath id="clip0_25_1017">
<rect width="24" height="24" fill="white" transform="translate(0 0.00292969)"/>
</clipPath>
</defs>
</svg>
