<svg width="63" height="63" viewBox="0 0 63 63" fill="none" xmlns="http://www.w3.org/2000/svg">
<g clip-path="url(#clip0_25_990)">
<path d="M0 30.24C0 15.9847 0 8.85709 4.42855 4.42855C8.85709 0 15.9847 0 30.24 0H32.76C47.0153 0 54.1429 0 58.5715 4.42855C63 8.85709 63 15.9847 63 30.24V32.76C63 47.0153 63 54.1429 58.5715 58.5715C54.1429 63 47.0153 63 32.76 63H30.24C15.9847 63 8.85709 63 4.42855 58.5715C0 54.1429 0 47.0153 0 32.76V30.24Z" fill="#0077FF"/>
<path d="M33.5212 45.3863C19.1625 45.3863 10.9726 35.5426 10.6313 19.1626H17.8238C18.0601 31.1851 23.3625 36.2776 27.5625 37.3276V19.1626H34.3352V29.5313C38.4827 29.0851 42.8397 24.3601 44.3097 19.1626H51.0823C49.9536 25.5676 45.2286 30.2926 41.8686 32.2351C45.2286 33.8101 50.6101 37.9313 52.6576 45.3863H45.2023C43.6011 40.3988 39.6115 36.5401 34.3352 36.0151V45.3863H33.5212Z" fill="white"/>
</g>
<defs>
<clipPath id="clip0_25_990">
<rect width="63" height="63" fill="white"/>
</clipPath>
</defs>
</svg>
