<svg width="62" height="62" viewBox="0 0 62 62" fill="none" xmlns="http://www.w3.org/2000/svg">
<g clip-path="url(#clip0_25_989)">
<path d="M31 62.002C48.1208 62.002 62 48.1228 62 31.002C62 13.8811 48.1208 0.00195312 31 0.00195312C13.8792 0.00195312 0 13.8811 0 31.002C0 48.1228 13.8792 62.002 31 62.002Z" fill="url(#paint0_linear_25_989)"/>
<path fill-rule="evenodd" clip-rule="evenodd" d="M14.0324 30.6748C23.0695 26.7375 29.0957 24.1418 32.1109 22.8876C40.7199 19.3068 42.5088 18.6848 43.6748 18.6643C43.9312 18.6598 44.5046 18.7233 44.876 19.0247C45.1896 19.2792 45.2759 19.6229 45.3172 19.8642C45.3585 20.1055 45.4099 20.6551 45.3691 21.0846C44.9025 25.9864 42.8839 37.8818 41.8569 43.372C41.4223 45.6951 40.5667 46.474 39.7383 46.5502C37.9381 46.7159 36.5711 45.3605 34.8275 44.2175C32.0991 42.429 30.5577 41.3157 27.9093 39.5704C24.8487 37.5535 26.8328 36.445 28.577 34.6333C29.0335 34.1592 36.9654 26.9446 37.1189 26.2901C37.1381 26.2082 37.1559 25.9031 36.9746 25.742C36.7934 25.5809 36.5258 25.636 36.3328 25.6798C36.0591 25.7419 31.7005 28.6228 23.2568 34.3225C22.0196 35.1721 20.899 35.586 19.895 35.5643C18.7881 35.5404 16.659 34.9385 15.0762 34.424C13.1348 33.7929 11.5918 33.4593 11.7262 32.3875C11.7962 31.8293 12.5649 31.2584 14.0324 30.6748Z" fill="white"/>
</g>
<defs>
<linearGradient id="paint0_linear_25_989" x1="31" y1="0.00195312" x2="31" y2="61.5421" gradientUnits="userSpaceOnUse">
<stop stop-color="#2AABEE"/>
<stop offset="1" stop-color="#229ED9"/>
</linearGradient>
<clipPath id="clip0_25_989">
<rect width="62" height="62" fill="white" transform="translate(0 0.00195312)"/>
</clipPath>
</defs>
</svg>
