<svg width="33" height="38" viewBox="0 0 33 38" fill="none" xmlns="http://www.w3.org/2000/svg">
<path fill-rule="evenodd" clip-rule="evenodd" d="M1.23762 28.3677L5.33932 30.7358C5.74988 30.9729 6.2631 30.6766 6.2631 30.2025L6.26297 20.019C6.26294 19.5449 6.77615 19.2486 7.18671 19.4857L16.3131 24.7551C16.6942 24.9751 17.1637 24.9751 17.5448 24.7551L21.3396 22.5643C21.7501 22.3273 22.2633 22.6236 22.2633 23.0977V27.4786C22.2633 27.9186 22.0286 28.3252 21.6475 28.5452L17.5458 30.9135C17.1647 31.1335 16.6952 31.1335 16.3141 30.9135L12.5202 28.723C12.1097 28.486 11.5964 28.7822 11.5964 29.2563V33.9928C11.5964 34.2128 11.7138 34.4162 11.9043 34.5261L16.6218 37.2497C16.8123 37.3597 17.0471 37.3597 17.2376 37.2497L21.9553 34.526C22.1458 34.416 22.2632 34.2127 22.2632 33.9927V29.2695C22.2632 28.8294 22.4979 28.4228 22.879 28.2028L26.6727 26.0124C27.0833 25.7753 27.5965 26.0716 27.5965 26.5457L27.5964 30.2025C27.5963 30.6765 28.1096 30.9728 28.5201 30.7358L32.6218 28.3677C32.8123 28.2577 32.9297 28.0544 32.9297 27.8344V16.9396C32.9297 16.4656 32.4165 16.1693 32.006 16.4063L23.1869 21.4973C22.7763 21.7344 22.2632 21.4381 22.2632 20.964V16.5834C22.2632 16.1433 22.498 15.7367 22.8791 15.5167L32.0057 10.248C32.4163 10.011 32.4163 9.41842 32.0058 9.18139L27.9046 6.81358C27.714 6.70356 27.4793 6.70356 27.2888 6.81355L17.8524 12.2608C17.4418 12.4979 17.4418 13.0905 17.8524 13.3276L21.3391 15.3401C21.7497 15.5771 21.7498 16.1698 21.3392 16.4068L17.5454 18.5973C17.1643 18.8173 16.6948 18.8173 16.3137 18.5973L7.18674 13.3282C6.77615 13.0912 6.77615 12.4986 7.18671 12.2615L21.3398 4.09009C21.7504 3.85302 21.7504 3.26046 21.3398 3.02343L17.2376 0.654999C17.0471 0.545013 16.8123 0.545013 16.6218 0.654999L1.85353 9.18143C1.44297 9.41845 1.44297 10.0111 1.8535 10.2481L5.64729 12.4386C6.02838 12.6586 6.26313 13.0652 6.2631 13.5053L6.26274 17.8859C6.26271 18.36 5.74953 18.6563 5.33897 18.4192L1.85346 16.4067C1.4429 16.1697 0.929688 16.466 0.929688 16.9401V27.8344C0.929688 28.0544 1.04706 28.2577 1.23762 28.3677Z" fill="#1B1B1B"/>
</svg>
