<svg width="32" height="38" viewBox="0 0 32 38" fill="none" xmlns="http://www.w3.org/2000/svg">
<path fill-rule="evenodd" clip-rule="evenodd" d="M0.307936 28.3695L4.40963 30.7376C4.82019 30.9746 5.33341 30.6783 5.33341 30.2042L5.33328 20.0207C5.33325 19.5466 5.84646 19.2503 6.25702 19.4874L15.3834 24.7568C15.7645 24.9768 16.234 24.9769 16.6151 24.7569L20.4099 22.566C20.8204 22.3291 21.3336 22.6253 21.3336 23.0994V27.4803C21.3336 27.9203 21.0989 28.3269 20.7178 28.5469L16.6161 30.9152C16.235 31.1352 15.7655 31.1352 15.3844 30.9152L11.5905 28.7247C11.18 28.4877 10.6668 28.784 10.6668 29.258V33.9945C10.6668 34.2146 10.7841 34.4179 10.9747 34.5279L15.6921 37.2515C15.8826 37.3614 16.1174 37.3614 16.3079 37.2515L21.0256 34.5277C21.2161 34.4177 21.3335 34.2144 21.3335 33.9944V29.2712C21.3335 28.8311 21.5682 28.4245 21.9493 28.2045L25.743 26.0141C26.1536 25.777 26.6668 26.0733 26.6668 26.5474L26.6667 30.2042C26.6667 30.6782 27.1799 30.9745 27.5904 30.7375L31.6921 28.3695C31.8826 28.2594 32 28.0561 32 27.8361V16.9414C32 16.4673 31.4868 16.171 31.0763 16.408L22.2572 21.4991C21.8467 21.7361 21.3335 21.4398 21.3335 20.9657V16.5851C21.3335 16.145 21.5683 15.7384 21.9494 15.5184L31.076 10.2498C31.4866 10.0127 31.4866 9.42013 31.0761 9.1831L26.9749 6.81529C26.7844 6.70527 26.5496 6.70527 26.3591 6.81526L16.9227 12.2625C16.5121 12.4996 16.5121 13.0922 16.9228 13.3293L20.4094 15.3418C20.82 15.5788 20.8201 16.1715 20.4095 16.4085L16.6157 18.599C16.2346 18.819 15.7651 18.819 15.384 18.599L6.25706 13.3299C5.84646 13.0929 5.84646 12.5003 6.25702 12.2632L20.4101 4.0918C20.8207 3.85473 20.8207 3.26217 20.4101 3.02514L16.3079 0.656708C16.1174 0.546722 15.8826 0.546722 15.6921 0.656708L0.92384 9.18314C0.51328 9.42016 0.51328 10.0128 0.923808 10.2498L4.7176 12.4403C5.09869 12.6603 5.33344 13.067 5.33341 13.507L5.33306 17.8876C5.33302 18.3617 4.81984 18.658 4.40928 18.4209L0.923776 16.4084C0.513216 16.1714 0 16.4677 0 16.9418V27.8361C0 28.0561 0.117376 28.2594 0.307936 28.3695Z" fill="#1B1B1B"/>
</svg>
