<svg width="1920" height="1100" viewBox="0 0 1920 1100" fill="none" xmlns="http://www.w3.org/2000/svg">
<path fill-rule="evenodd" clip-rule="evenodd" d="M1942.46 30C1942.46 13.4315 1929.03 0 1912.46 0H-4.17188C-20.7404 0 -34.1719 13.4314 -34.1719 30V950C-34.1719 966.569 -20.7404 980 -4.17188 980H156C172.569 980 186 993.431 186 1010V1070C186 1086.57 199.431 1100 216 1100H499C515.569 1100 529 1086.57 529 1070V1010C529 993.431 542.431 980 559 980H1912.46C1929.03 980 1942.46 966.569 1942.46 950V30Z" fill="#8F00FF"/>
</svg>
