<svg width="49" height="47" viewBox="0 0 49 47" fill="none" xmlns="http://www.w3.org/2000/svg">
<path fill-rule="evenodd" clip-rule="evenodd" d="M24.4421 40.2096L19.4194 46.8544L17.5059 38.7184L10.2452 42.7242L11.7713 34.5032L3.52527 35.1774L8.22653 28.2957L0.422119 25.5199L7.48451 21.1649L1.47353 15.419L9.67747 14.344L6.49624 6.62406L14.4238 9.01721L14.6221 0.656494L21.1498 6.31735L20.7652 6.76986L15.1808 1.92592L15.0036 9.36341C15.0005 9.47272 14.9495 9.56992 14.8623 9.63367C14.7752 9.69747 14.6701 9.71567 14.5679 9.68532L7.51757 7.55643L10.3474 14.4229C10.3864 14.5201 10.3804 14.6325 10.3293 14.7236C10.2783 14.8147 10.1851 14.8785 10.08 14.8937L2.78027 15.8503L8.12741 20.9584C8.20251 21.0283 8.24152 21.1346 8.23254 21.2408C8.22351 21.3472 8.16344 21.4444 8.0733 21.499L1.78892 25.3741L8.73119 27.8432C8.83032 27.8766 8.90844 27.9586 8.94145 28.0588C8.97451 28.159 8.95649 28.2714 8.89941 28.3594L4.71785 34.4819L12.0536 33.8836C12.1617 33.8745 12.2609 33.917 12.333 33.996C12.4021 34.075 12.4351 34.1843 12.4141 34.2876L11.0593 41.6005L17.5179 38.0382C17.611 37.9865 17.7191 37.9835 17.8183 38.026C17.9144 38.0685 17.9865 38.1536 18.0106 38.2599L19.7138 45.4969L24.1808 39.587C24.307 39.42 24.5923 39.417 24.7185 39.587L29.1855 45.4969L30.8887 38.2599C30.9127 38.1536 30.9849 38.0685 31.081 38.026C31.1771 37.9835 31.2882 37.9865 31.3814 38.0382L37.84 41.6005L36.4852 34.2876C36.4672 34.1843 36.4972 34.075 36.5663 33.996C36.6354 33.917 36.7405 33.8775 36.8456 33.8836L44.1785 34.4819L39.9968 28.3594C39.9368 28.2714 39.9217 28.159 39.9548 28.0588C39.9879 27.9586 40.0659 27.8766 40.1651 27.8432L47.1044 25.3741L40.868 21.5294L40.862 20.8278L48.4712 25.5199L40.6667 28.2957L45.368 35.1774L37.122 34.5032L38.6481 42.7242L31.3874 38.7184L29.4738 46.8544H29.4648L24.4421 40.2096Z" fill="#8F00FF"/>
</svg>
