<svg width="77" height="61" viewBox="0 0 77 61" fill="none" xmlns="http://www.w3.org/2000/svg">
<path d="M75.5155 25.8498C76.4799 23.4854 75.885 20.7729 74.125 18.9229L70.0509 27.3259C71.2859 28.6933 72.4008 29.9283 73.4397 30.9391L75.5155 25.8498Z" fill="#1B1B1B"/>
<path d="M65.7114 22.6875L61.7835 31.1003C63.2537 32.7218 64.6115 34.3726 65.8702 35.9487L70.0509 27.3259C68.754 25.8902 67.3247 24.3086 65.7114 22.6875Z" fill="#1B1B1B"/>
<path d="M55.2673 25.0138L51.7846 33.2862C54.1117 35.2211 56.2345 37.1576 58.1057 38.9776L61.7835 31.1003C59.8221 28.937 57.6605 26.8259 55.2673 25.0138Z" fill="#1B1B1B"/>
<path d="M51.1891 12.2379L47.7845 20.868C50.5063 21.8379 52.9916 23.2907 55.2673 25.0138L58.7739 16.6846C56.5342 15.0618 54.0253 13.5393 51.1891 12.2379Z" fill="#1B1B1B"/>
<path d="M51.5585 3.18378C49.8695 2.66107 47.822 2.23279 45.6578 1.88891L42.8556 9.60184C44.9869 9.96599 47.2681 10.5824 49.6766 11.5784C50.1909 11.7911 50.695 12.0111 51.1891 12.2379L54.3795 4.15067C53.4823 3.81144 52.5433 3.48853 51.5585 3.18378Z" fill="#1B1B1B"/>
<path d="M69.6537 14.2439C67.5439 12.1367 65.2199 10.0642 62.3537 8.18165L58.7739 16.6846C61.4334 18.6114 63.7134 20.6798 65.7114 22.6875L69.6537 14.2439Z" fill="#1B1B1B"/>
<path d="M62.307 43.2978C64.05 45.1982 67.313 44.7594 68.3303 42.3899L69.2604 40.2235C68.2152 38.9316 67.0892 37.4752 65.8702 35.9487L62.307 43.2978Z" fill="#1B1B1B"/>
<path d="M37.0573 25.561C39.6649 25.9917 42.3312 26.8242 44.8807 28.2287L47.7845 20.868C47.3596 20.7166 46.929 20.577 46.4925 20.4499C44.0912 19.7509 41.6637 19.4518 39.2978 19.3944L37.0573 25.561Z" fill="#1B1B1B"/>
<path d="M33.1994 9.32255L29.2649 20.2481C32.2629 19.776 35.7094 19.3073 39.2978 19.3944L42.8556 9.60184C39.1425 8.96746 35.8842 9.09871 33.1994 9.32255Z" fill="#1B1B1B"/>
<path d="M19.6465 24.9598C22.127 25.561 24.3759 25.7953 27.6834 25.8976C28.301 23.6913 29.2649 20.2481 29.2649 20.2481C26.9459 20.2616 23.96 20.1525 21.9263 19.8614L19.6465 24.9598Z" fill="#1B1B1B"/>
<path d="M36.2346 0.894344C33.794 0.747554 31.7044 0.705473 30.4091 0.749732L27.1487 8.85031C28.5514 8.99744 30.7636 9.52563 33.1994 9.32255L36.2346 0.894344Z" fill="#1B1B1B"/>
<path d="M19.6465 24.9598L21.9263 19.8614L27.1487 8.85031L30.4091 0.749732C28.4977 0.935648 26.828 2.1208 26.0219 3.86386L0.66461 58.6901C0.35454 59.3605 0.723829 60.1485 1.43745 60.3392C1.98865 60.4864 2.56681 60.2218 2.81553 59.7083L19.6465 24.9598Z" fill="#1B1B1B"/>
<path d="M19.6465 24.9598C22.127 25.561 24.3759 25.7953 27.6834 25.8976M19.6465 24.9598L21.9263 19.8614M19.6465 24.9598L2.81553 59.7083C2.56682 60.2218 1.98865 60.4864 1.43745 60.3392V60.3392C0.72383 60.1485 0.35454 59.3605 0.664612 58.6901L26.0219 3.86386C26.828 2.1208 28.4977 0.935648 30.4091 0.749732V0.749732M30.4091 0.749732C31.7044 0.705473 33.794 0.747554 36.2346 0.894345M30.4091 0.749732L27.1487 8.85031M27.6834 25.8976C31.1923 25.7217 33.5408 25.4098 37.0573 25.561M27.6834 25.8976C28.301 23.6913 29.2649 20.2481 29.2649 20.2481M36.2346 0.894345C39.1287 1.06841 42.5162 1.38972 45.6578 1.88891M36.2346 0.894345L33.1994 9.32255M45.6578 1.88891C47.822 2.23279 49.8695 2.66107 51.5585 3.18379C52.5433 3.48853 53.4823 3.81144 54.3795 4.15067M45.6578 1.88891L42.8556 9.60184M37.0573 25.561C39.6649 25.9917 42.3312 26.8242 44.8807 28.2287M37.0573 25.561L39.2978 19.3944M44.8807 28.2287C45.7517 28.7085 46.6091 29.2551 47.4458 29.8752C48.9572 30.9953 50.4067 32.1405 51.7846 33.2862M44.8807 28.2287L47.7845 20.868M54.3795 4.15067C57.4842 5.32453 60.0883 6.69375 62.3537 8.18165M54.3795 4.15067L51.1891 12.2379M62.3537 8.18165C65.2199 10.0642 67.5439 12.1367 69.6537 14.2439M62.3537 8.18165L58.7739 16.6846M51.7846 33.2862C54.1117 35.2211 56.2345 37.1576 58.1057 38.9776M51.7846 33.2862L55.2673 25.0138M58.1057 38.9776C59.698 40.5263 61.1082 41.9907 62.307 43.2978M58.1057 38.9776L61.7835 31.1003M69.6537 14.2439C71.2173 15.8056 72.6632 17.3863 74.125 18.9229M69.6537 14.2439L65.7114 22.6875M74.125 18.9229V18.9229C75.885 20.7729 76.4799 23.4854 75.5155 25.8498L73.4397 30.9391M74.125 18.9229L70.0509 27.3259M62.307 43.2978V43.2978C64.05 45.1982 67.313 44.7594 68.3303 42.3899L69.2604 40.2235M62.307 43.2978L65.8702 35.9487M69.2604 40.2235L73.4397 30.9391M69.2604 40.2235C68.2152 38.9316 67.0892 37.4752 65.8702 35.9487M21.9263 19.8614L27.1487 8.85031M21.9263 19.8614C23.96 20.1525 26.9459 20.2616 29.2649 20.2481M73.4397 30.9391C72.4008 29.9283 71.2859 28.6933 70.0509 27.3259M27.1487 8.85031C28.5514 8.99745 30.7636 9.52563 33.1994 9.32255M70.0509 27.3259L65.8702 35.9487M70.0509 27.3259C68.754 25.8902 67.3247 24.3086 65.7114 22.6875M65.7114 22.6875L61.7835 31.1003M65.7114 22.6875C63.7134 20.6798 61.4334 18.6114 58.7739 16.6846M61.7835 31.1003C63.2537 32.7218 64.6115 34.3726 65.8702 35.9487M61.7835 31.1003C59.8221 28.937 57.6605 26.8259 55.2673 25.0138M55.2673 25.0138C52.9916 23.2907 50.5063 21.8379 47.7845 20.868M55.2673 25.0138L58.7739 16.6846M51.1891 12.2379L47.7845 20.868M51.1891 12.2379C54.0253 13.5393 56.5342 15.0618 58.7739 16.6846M51.1891 12.2379C50.695 12.0111 50.1909 11.7911 49.6766 11.5784C47.2681 10.5824 44.9869 9.96599 42.8556 9.60184M47.7845 20.868C47.3596 20.7166 46.929 20.577 46.4925 20.4499C44.0912 19.7509 41.6637 19.4518 39.2978 19.3944M42.8556 9.60184L39.2978 19.3944M42.8556 9.60184C39.1425 8.96746 35.8842 9.09871 33.1994 9.32255M39.2978 19.3944C35.7094 19.3073 32.2629 19.776 29.2649 20.2481M33.1994 9.32255L29.2649 20.2481" stroke="#1B1B1B"/>
</svg>
