<svg width="75" height="61" viewBox="0 0 75 61" fill="none" xmlns="http://www.w3.org/2000/svg">
<path d="M1.30381 25.8498C0.339435 23.4854 0.934329 20.7729 2.69435 18.9229L6.76846 27.3259C5.53339 28.6933 4.41855 29.9283 3.37962 30.9391L1.30381 25.8498Z" fill="#1B1B1B"/>
<path d="M11.1079 22.6875L15.0358 31.1003C13.5656 32.7218 12.2078 34.3726 10.9491 35.9487L6.76846 27.3259C8.06529 25.8902 9.49467 24.3086 11.1079 22.6875Z" fill="#1B1B1B"/>
<path d="M21.552 25.0138L25.0347 33.2862C22.7076 35.2211 20.5849 37.1576 18.7137 38.9776L15.0358 31.1003C16.9973 28.937 19.1588 26.8259 21.552 25.0138Z" fill="#1B1B1B"/>
<path d="M25.6303 12.2379L29.0349 20.868C26.313 21.8379 23.8278 23.2907 21.552 25.0138L18.0454 16.6846C20.2851 15.0618 22.794 13.5393 25.6303 12.2379Z" fill="#1B1B1B"/>
<path d="M25.2608 3.18378C26.9499 2.66107 28.9973 2.23278 31.1615 1.88891L33.9638 9.60184C31.8324 9.96599 29.5512 10.5824 27.1427 11.5784C26.6284 11.7911 26.1244 12.0111 25.6303 12.2379L22.4399 4.15066C23.3371 3.81144 24.2761 3.48853 25.2608 3.18378Z" fill="#1B1B1B"/>
<path d="M7.16566 14.2439C9.27544 12.1367 11.5994 10.0642 14.4657 8.18165L18.0454 16.6846C15.3859 18.6114 13.1059 20.6798 11.1079 22.6875L7.16566 14.2439Z" fill="#1B1B1B"/>
<path d="M14.5123 43.2978C12.7693 45.1982 9.50636 44.7594 8.48908 42.3899L7.55898 40.2235C8.60409 38.9316 9.73012 37.4752 10.9491 35.9487L14.5123 43.2978Z" fill="#1B1B1B"/>
<path d="M39.762 25.561C37.1544 25.9917 34.4881 26.8242 31.9387 28.2287L29.0349 20.868C29.4597 20.7166 29.8903 20.577 30.3268 20.4499C32.7281 19.7509 35.1557 19.4518 37.5216 19.3944L39.762 25.561Z" fill="#1B1B1B"/>
<path d="M43.6199 9.32255L47.5545 20.2481C44.5564 19.776 41.1099 19.3073 37.5216 19.3944L33.9638 9.60184C37.6768 8.96745 40.9352 9.09871 43.6199 9.32255Z" fill="#1B1B1B"/>
<path d="M57.121 25.0138C54.3677 25.8976 52.6449 26.0735 49.1359 25.8976C48.5183 23.6913 47.5545 20.2481 47.5545 20.2481C49.8734 20.2616 52.334 20.1054 54.3677 19.8143L57.121 25.0138Z" fill="#1B1B1B"/>
<path d="M40.5847 0.894343C43.0253 0.747551 45.1149 0.705471 46.4102 0.74973L49.6706 8.85031C48.2679 8.99744 46.0557 9.52563 43.6199 9.32255L40.5847 0.894343Z" fill="#1B1B1B"/>
<path d="M57.121 25.0138L54.3677 19.8143L49.6706 8.85031L46.4102 0.74973C48.3136 0.934869 49.9656 2.14106 50.7216 3.89774L74.3788 58.8704C74.6672 59.5404 74.1758 60.2869 73.4463 60.2869C73.045 60.2869 72.6814 60.0505 72.5185 59.6837L57.121 25.0138Z" fill="#1B1B1B"/>
<path d="M57.121 25.0138C54.3677 25.8976 52.6449 26.0735 49.1359 25.8976M57.121 25.0138L54.3677 19.8143M57.121 25.0138L72.5185 59.6837C72.6814 60.0505 73.045 60.2869 73.4463 60.2869V60.2869C74.1758 60.2869 74.6672 59.5404 74.3788 58.8704L50.7216 3.89774C49.9656 2.14106 48.3136 0.934869 46.4102 0.749729V0.749729M46.4102 0.749729C45.1149 0.705471 43.0253 0.747552 40.5847 0.894343M46.4102 0.749729L49.6706 8.85031M49.1359 25.8976C45.627 25.7217 43.2785 25.4098 39.762 25.561M49.1359 25.8976C48.5183 23.6913 47.5545 20.2481 47.5545 20.2481M40.5847 0.894343C37.6907 1.06841 34.3031 1.38972 31.1615 1.88891M40.5847 0.894343L43.6199 9.32255M31.1615 1.88891C28.9973 2.23278 26.9499 2.66107 25.2608 3.18378C24.2761 3.48853 23.3371 3.81144 22.4399 4.15067M31.1615 1.88891L33.9638 9.60184M39.762 25.561C37.1544 25.9917 34.4881 26.8242 31.9387 28.2287M39.762 25.561L37.5216 19.3944M31.9387 28.2287C31.0676 28.7085 30.2103 29.2551 29.3735 29.8752C27.8622 30.9953 26.4126 32.1405 25.0347 33.2862M31.9387 28.2287L29.0349 20.868M22.4399 4.15067C19.3351 5.32453 16.731 6.69375 14.4657 8.18165M22.4399 4.15067L25.6303 12.2379M14.4657 8.18165C11.5994 10.0642 9.27544 12.1367 7.16566 14.2439M14.4657 8.18165L18.0454 16.6846M25.0347 33.2862C22.7076 35.2211 20.5849 37.1576 18.7137 38.9776M25.0347 33.2862L21.552 25.0138M18.7137 38.9776C17.1213 40.5263 15.7111 41.9907 14.5123 43.2978M18.7137 38.9776L15.0358 31.1003M7.16566 14.2439C5.60206 15.8056 4.15613 17.3863 2.69435 18.9229M7.16566 14.2439L11.1079 22.6875M2.69435 18.9229V18.9229C0.934329 20.7729 0.339435 23.4854 1.30381 25.8498L3.37962 30.9391M2.69435 18.9229L6.76846 27.3259M14.5123 43.2978V43.2978C12.7693 45.1982 9.50636 44.7594 8.48908 42.3899L7.55898 40.2235M14.5123 43.2978L10.9491 35.9487M7.55898 40.2235L3.37962 30.9391M7.55898 40.2235C8.60409 38.9316 9.73012 37.4752 10.9491 35.9487M54.3677 19.8143L49.6706 8.85031M54.3677 19.8143C52.334 20.1054 49.8734 20.2616 47.5545 20.2481M3.37962 30.9391C4.41855 29.9283 5.53339 28.6933 6.76846 27.3259M49.6706 8.85031C48.2679 8.99744 46.0557 9.52563 43.6199 9.32255M6.76846 27.3259L10.9491 35.9487M6.76846 27.3259C8.06529 25.8902 9.49467 24.3086 11.1079 22.6875M11.1079 22.6875L15.0358 31.1003M11.1079 22.6875C13.1059 20.6798 15.3859 18.6114 18.0454 16.6846M15.0358 31.1003C13.5656 32.7218 12.2078 34.3726 10.9491 35.9487M15.0358 31.1003C16.9973 28.937 19.1588 26.8259 21.552 25.0138M21.552 25.0138C23.8278 23.2907 26.313 21.8379 29.0349 20.868M21.552 25.0138L18.0454 16.6846M25.6303 12.2379L29.0349 20.868M25.6303 12.2379C22.794 13.5393 20.2851 15.0618 18.0454 16.6846M25.6303 12.2379C26.1244 12.0111 26.6284 11.7911 27.1427 11.5784C29.5512 10.5824 31.8324 9.96599 33.9638 9.60184M29.0349 20.868C29.4597 20.7166 29.8903 20.577 30.3268 20.4499C32.7281 19.7509 35.1557 19.4518 37.5216 19.3944M33.9638 9.60184L37.5216 19.3944M33.9638 9.60184C37.6768 8.96746 40.9352 9.09871 43.6199 9.32255M37.5216 19.3944C41.1099 19.3073 44.5564 19.776 47.5545 20.2481M43.6199 9.32255L47.5545 20.2481" stroke="#1B1B1B"/>
</svg>
