<svg width="94" height="163" viewBox="0 0 94 163" fill="none" xmlns="http://www.w3.org/2000/svg">
<path d="M61.2339 161.833L47.2291 158.918C47.2291 158.918 49.8125 120.522 52.0519 96.4111C54.295 72.261 60.498 35.996 58.7089 35.3511C55.9643 34.3619 26.4358 58.2233 26.4358 61.206C26.4358 63.443 45.395 98.7066 45.395 98.7066L34.1471 106.511C23.5114 92.5853 0.413353 68.045 1.23215 56.7319C2.05094 45.4189 31.3144 17.4463 47.2291 1.37793L93.1411 13.544C93.1411 13.544 93.9026 22.9661 93.1411 28.9238C91.6072 40.9238 71.1045 108.348 71.1045 108.348L61.2339 161.833Z" fill="#1B1B1B" stroke="#1B1B1B" stroke-linecap="round" stroke-linejoin="round"/>
</svg>
